<?xml version="1.0" encoding="UTF-8" standalone="no"?>
<!-- Created with Inkscape (http://www.inkscape.org/) -->

<svg
   width="185mm"
   height="36mm"
   viewBox="0 0 185 36"
   version="1.1"
   id="svg5"
   sodipodi:docname="drawing.svg"
   inkscape:version="1.1 (ce6663b3b7, 2021-05-25)"
   xmlns:inkscape="http://www.inkscape.org/namespaces/inkscape"
   xmlns:sodipodi="http://sodipodi.sourceforge.net/DTD/sodipodi-0.dtd"
   xmlns="http://www.w3.org/2000/svg"
   xmlns:svg="http://www.w3.org/2000/svg">
  <sodipodi:namedview
     id="namedview7"
     pagecolor="#ffffff"
     bordercolor="#666666"
     borderopacity="1.0"
     inkscape:pageshadow="2"
     inkscape:pageopacity="0.0"
     inkscape:pagecheckerboard="0"
     inkscape:document-units="mm"
     showgrid="false"
     inkscape:zoom="1.0998546"
     inkscape:cx="288.67452"
     inkscape:cy="353.22851"
     inkscape:window-width="2560"
     inkscape:window-height="1376"
     inkscape:window-x="0"
     inkscape:window-y="27"
     inkscape:window-maximized="1"
     inkscape:current-layer="layer2"
     height="296mm" />
  <defs
     id="defs2">
    <rect
       x="600.51886"
       y="125.89641"
       width="777.74371"
       height="329.84082"
       id="rect5817" />
  </defs>
  <g
     inkscape:label="Layer 1"
     inkscape:groupmode="layer"
     id="layer1">
    <g
       id="g77"
       transform="matrix(0.0672689,0,0,0.06435795,1.5465866,0.98443995)"
       style="fill:#ffcc00">
      <g
         id="g19"
         style="fill:#ffcc00">
	<g
   id="g17"
   style="fill:#ffcc00">
		<g
   id="g15"
   style="fill:#ffcc00">
			<path
   d="m 479.25,344.35 c 4.206,-12.68 7.598,-25.616 9.354,-38.84 1.406,-10.677 2.063,-19.625 2.063,-28.177 0,-37.573 -10.094,-74.708 -29.198,-107.385 -1.781,-3.042 -4.948,-5.01 -8.458,-5.25 -3.438,-0.208 -6.917,1.26 -9.115,4.01 -4.083,5.156 -8.781,10.125 -13.969,14.75 -3.688,3.292 -4.625,8.677 -2.281,13.021 13.312,24.698 20.354,52.656 20.354,80.854 0,5.656 -0.302,11.25 -0.844,16.76 -0.982,10.049 -3.073,19.951 -5.87,29.714 C 433.178,321.576 424.807,320 416,320 c -52.938,0 -96,43.063 -96,96 0,52.937 43.063,96 96,96 52.937,0 96,-43.063 96,-96 0,-28.611 -12.832,-54.047 -32.75,-71.65 z"
   id="path9"
   style="fill:#ffcc00" />

			<path
   d="m 305.208,454.271 c -1.615,-4.656 -6.198,-7.469 -11.115,-7.115 -5.51,0.542 -11.104,0.844 -16.76,0.844 -45.948,0 -89.063,-18.042 -121.406,-50.792 -6.943,-7.03 -13.02,-14.801 -18.642,-22.911 C 169.523,358.798 192,326.099 192,288 c 0,-52.938 -43.063,-96 -96,-96 -52.937,0 -96,43.063 -96,96 0,52.038 41.674,94.306 93.372,95.734 7.34,12.699 15.428,24.833 25.044,35.578 v 0.01 c 40.542,45.333 98.458,71.344 158.917,71.344 8.552,0 17.5,-0.656 28.177,-2.063 3.5,-0.458 6.542,-2.625 8.135,-5.781 1.583,-3.156 1.51,-6.885 -0.208,-9.979 -3.135,-5.624 -5.895,-11.874 -8.229,-18.572 z"
   id="path11"
   style="fill:#ffcc00" />

			<path
   d="m 110.219,171.625 c 7.406,0.896 14.479,2.396 21.021,4.469 1.063,0.333 2.146,0.5 3.219,0.5 3.229,0 6.344,-1.469 8.406,-4.104 21.854,-27.979 51.125,-48.167 84.635,-58.385 9.724,-2.966 19.688,-4.753 29.729,-5.947 C 263.28,155.313 303.225,192 352,192 c 52.938,0 96,-43.063 96,-96 0,-52.937 -43.062,-96 -96,-96 -42.06,0 -77.492,27.357 -90.439,65.079 -13.089,1.027 -26.275,2.865 -39.488,6.4 -48.198,12.906 -90.563,42.531 -119.292,83.417 -2.156,3.073 -2.542,7.042 -1.021,10.469 1.532,3.427 4.74,5.802 8.459,6.26 z"
   id="path13"
   style="fill:#ffcc00" />

		</g>

	</g>

</g>
      <g
         id="g21"
         style="fill:#ffcc00">
</g>
      <g
         id="g23"
         style="fill:#ffcc00">
</g>
      <g
         id="g25"
         style="fill:#ffcc00">
</g>
      <g
         id="g27"
         style="fill:#ffcc00">
</g>
      <g
         id="g29"
         style="fill:#ffcc00">
</g>
      <g
         id="g31"
         style="fill:#ffcc00">
</g>
      <g
         id="g33"
         style="fill:#ffcc00">
</g>
      <g
         id="g35"
         style="fill:#ffcc00">
</g>
      <g
         id="g37"
         style="fill:#ffcc00">
</g>
      <g
         id="g39"
         style="fill:#ffcc00">
</g>
      <g
         id="g41"
         style="fill:#ffcc00">
</g>
      <g
         id="g43"
         style="fill:#ffcc00">
</g>
      <g
         id="g45"
         style="fill:#ffcc00">
</g>
      <g
         id="g47"
         style="fill:#ffcc00">
</g>
      <g
         id="g49"
         style="fill:#ffcc00">
</g>
    </g>
    <text
       xml:space="preserve"
       transform="scale(0.26458333)"
       id="text5815"
       style="font-style:normal;font-variant:normal;font-weight:normal;font-stretch:normal;font-size:96px;line-height:1.25;font-family:Comfortaa;-inkscape-font-specification:Comfortaa;white-space:pre;shape-inside:url(#rect5817);fill:#000000;fill-opacity:1;stroke:none" />
    <text
       xml:space="preserve"
       style="font-style:normal;font-weight:normal;font-size:10.5833px;line-height:1.25;font-family:sans-serif;fill:#000000;fill-opacity:1;stroke:none;stroke-width:0.264583"
       x="178.19855"
       y="39.86834"
       id="text10179"><tspan
         sodipodi:role="line"
         id="tspan10177"
         style="stroke-width:0.264583"
         x="178.19855"
         y="39.86834" /></text>
  </g>
  <g
     inkscape:groupmode="layer"
     id="layer2"
     inkscape:label="Layer 2">
    <text
       xml:space="preserve"
       style="font-style:normal;font-weight:normal;font-size:10.5833px;line-height:1.25;font-family:sans-serif;fill:#000000;fill-opacity:1;stroke:none;stroke-width:0.264583"
       x="43.573326"
       y="24.967226"
       id="text14298"><tspan
         sodipodi:role="line"
         id="tspan14296"
         style="font-style:normal;font-variant:normal;font-weight:normal;font-stretch:normal;font-size:22.9306px;font-family:Comfortaa;-inkscape-font-specification:'Comfortaa, Normal';font-variant-ligatures:normal;font-variant-caps:normal;font-variant-numeric:normal;font-variant-east-asian:normal;fill:#ffffff;stroke-width:0.264583"
         x="43.573326"
         y="24.967226">Tensorcrypt</tspan></text>
  </g>
</svg>
